<svg width="2560" height="1440" viewBox="0 0 2560 1440" fill="none" xmlns="http://www.w3.org/2000/svg">
<rect width="2560" height="1440" fill="#2E5FD2"/>
<path d="M801.3 730H709.8V529H801.3C863.7 529 903 567.4 903 629.5C903 691.6 863.7 730 801.3 730ZM801.3 558.1H741.9V700.9H801.3C847.8 700.9 868.8 681.1 868.8 629.5C868.8 577.9 847.8 558.1 801.3 558.1ZM959.541 563.5H927.141V529H959.541V563.5ZM959.541 730H927.141V580.9H959.541V730ZM1064.84 733C1015.64 733 983.543 701.5 983.543 655.6C983.543 609.1 1015.64 577.9 1064.84 577.9C1109.54 577.9 1142.24 603.1 1142.24 640.3V643.3H1110.14V641.5C1110.14 618.4 1093.34 607 1064.24 607C1030.64 607 1015.64 622.9 1015.64 655.6C1015.64 687.7 1030.64 703.9 1064.24 703.9C1093.34 703.9 1110.14 692.5 1110.14 669.4V667.3H1142.24V670.6C1142.24 707.8 1109.54 733 1064.84 733ZM1241.2 733C1192.3 733 1160.2 705.4 1160.2 655.6C1160.2 609.1 1192 577.9 1240.6 577.9C1286.8 577.9 1318.3 603.4 1318.3 648.7C1318.3 654.1 1318 658.3 1317.1 662.8H1190.5C1191.7 691.6 1205.8 706.9 1240.3 706.9C1271.5 706.9 1284.4 696.7 1284.4 679V676.6H1316.8V679.3C1316.8 711.1 1285.6 733 1241.2 733ZM1240 603.4C1207 603.4 1192.6 618.1 1190.8 644.8H1287.7V644.2C1287.7 616.6 1271.8 603.4 1240 603.4ZM1426.87 733C1366.87 733 1336.27 706.6 1336.27 664.3V662.5H1368.67V667.3C1368.67 691.3 1382.77 703.3 1426.87 703.3C1465.27 703.3 1478.77 694.9 1478.77 676C1478.77 658.6 1468.57 652 1443.07 647.2L1393.87 639.1C1359.97 633.1 1335.97 617.5 1335.97 584.5C1335.97 555.4 1359.97 526 1422.37 526C1481.17 526 1507.87 555.4 1507.87 594.7V596.5H1475.77V592.6C1475.77 568 1461.07 555.7 1419.37 555.7C1382.77 555.7 1368.37 564.7 1368.37 582.7C1368.37 600.1 1378.57 605.8 1402.27 610.9L1451.17 619.3C1491.37 626.5 1511.17 644.8 1511.17 674.2C1511.17 704.8 1486.27 733 1426.87 733ZM1609.17 733C1560.27 733 1528.17 705.4 1528.17 655.6C1528.17 609.1 1559.97 577.9 1608.57 577.9C1654.77 577.9 1686.27 603.4 1686.27 648.7C1686.27 654.1 1685.97 658.3 1685.07 662.8H1558.47C1559.67 691.6 1573.77 706.9 1608.27 706.9C1639.47 706.9 1652.37 696.7 1652.37 679V676.6H1684.77V679.3C1684.77 711.1 1653.57 733 1609.17 733ZM1607.97 603.4C1574.97 603.4 1560.57 618.1 1558.77 644.8H1655.67V644.2C1655.67 616.6 1639.77 603.4 1607.97 603.4ZM1754.34 733C1723.44 733 1703.94 718.6 1703.94 694C1703.94 670.9 1722.54 658.9 1751.94 655.6L1819.74 648.4V639.7C1819.74 615.1 1808.94 606.4 1780.44 606.4C1752.84 606.4 1739.34 615.4 1739.34 637.3V638.5H1707.24V637.3C1707.24 603.4 1735.44 577.9 1782.84 577.9C1830.24 577.9 1851.54 603.7 1851.54 639.4V730H1821.84V692.8H1819.74C1811.94 718 1788.24 733 1754.34 733ZM1736.34 691.9C1736.34 703.9 1744.44 709.6 1763.04 709.6C1796.94 709.6 1819.74 697 1819.74 667.6L1761.24 674.2C1744.44 676.3 1736.34 680.2 1736.34 691.9Z" fill="white"/>
<path d="M929.8 962H916.4L901.5 912.3H912.7L921 940.5L923.3 953.3H924.1L927.8 939.5L938.2 912.3H952L962.5 939.5L966.2 953.3H967L969.3 940.5L977.6 912.3H988.6L973.5 962H960.1L949.2 933.4L945.4 921.2H944.6L940.8 933.4L929.8 962ZM1017.89 962H1004.49L989.586 912.3H1000.79L1009.09 940.5L1011.39 953.3H1012.19L1015.89 939.5L1026.29 912.3H1040.09L1050.59 939.5L1054.29 953.3H1055.09L1057.39 940.5L1065.69 912.3H1076.69L1061.59 962H1048.19L1037.29 933.4L1033.49 921.2H1032.69L1028.89 933.4L1017.89 962ZM1105.97 962H1092.57L1077.67 912.3H1088.87L1097.17 940.5L1099.47 953.3H1100.27L1103.97 939.5L1114.37 912.3H1128.17L1138.67 939.5L1142.37 953.3H1143.17L1145.47 940.5L1153.77 912.3H1164.77L1149.67 962H1136.27L1125.37 933.4L1121.57 921.2H1120.77L1116.97 933.4L1105.97 962ZM1181.86 962H1168.26V946.5H1181.86V962ZM1211.79 963C1196.09 963 1187.39 952.5 1187.39 937.2C1187.39 921.7 1195.99 911.3 1211.09 911.3C1222.89 911.3 1229.59 917.4 1231.59 925.8H1232.19V895H1242.99V962H1233.09V947.7H1232.39C1230.29 957.6 1222.99 963 1211.79 963ZM1198.29 937.2C1198.29 949.1 1204.39 953.1 1215.09 953.1C1225.69 953.1 1232.19 948.1 1232.19 937.7V936.9C1232.19 926.3 1225.99 921.1 1214.89 921.1C1204.49 921.1 1198.29 925.2 1198.29 937.2ZM1263.77 906.5H1252.97V895H1263.77V906.5ZM1263.77 962H1252.97V912.3H1263.77V962ZM1298.87 963C1282.47 963 1271.77 952.5 1271.77 937.2C1271.77 921.7 1282.47 911.3 1298.87 911.3C1313.77 911.3 1324.67 919.7 1324.67 932.1V933.1H1313.97V932.5C1313.97 924.8 1308.37 921 1298.67 921C1287.47 921 1282.47 926.3 1282.47 937.2C1282.47 947.9 1287.47 953.3 1298.67 953.3C1308.37 953.3 1313.97 949.5 1313.97 941.8V941.1H1324.67V942.2C1324.67 954.6 1313.77 963 1298.87 963ZM1357.66 963C1341.36 963 1330.66 953.8 1330.66 937.2C1330.66 921.7 1341.26 911.3 1357.46 911.3C1372.86 911.3 1383.36 919.8 1383.36 934.9C1383.36 936.7 1383.26 938.1 1382.96 939.6H1340.76C1341.16 949.2 1345.86 954.3 1357.36 954.3C1367.76 954.3 1372.06 950.9 1372.06 945V944.2H1382.86V945.1C1382.86 955.7 1372.46 963 1357.66 963ZM1357.26 919.8C1346.26 919.8 1341.46 924.7 1340.86 933.6H1373.16V933.4C1373.16 924.2 1367.86 919.8 1357.26 919.8ZM1414.95 963C1398.95 963 1389.85 956.7 1389.85 945.2V944.9H1400.65V945.7C1400.65 952.2 1404.55 954.3 1414.95 954.3C1424.65 954.3 1427.55 952.3 1427.55 947.9C1427.55 943.8 1425.15 942.5 1418.05 941.5L1404.45 939.7C1395.05 938.5 1389.35 934.5 1389.35 926.2C1389.35 917.5 1397.25 911.3 1412.55 911.3C1427.75 911.3 1436.95 917.4 1436.95 929.2V929.5H1426.25V928.9C1426.25 923 1423.25 919.9 1412.25 919.9C1403.15 919.9 1399.95 921.9 1399.95 926.6C1399.95 930.5 1401.95 931.9 1409.45 932.9L1420.95 934.5C1432.75 936 1438.15 940 1438.15 948.2C1438.15 957.5 1428.95 963 1414.95 963ZM1470.94 963C1454.64 963 1443.94 953.8 1443.94 937.2C1443.94 921.7 1454.54 911.3 1470.74 911.3C1486.14 911.3 1496.64 919.8 1496.64 934.9C1496.64 936.7 1496.54 938.1 1496.24 939.6H1454.04C1454.44 949.2 1459.14 954.3 1470.64 954.3C1481.04 954.3 1485.34 950.9 1485.34 945V944.2H1496.14V945.1C1496.14 955.7 1485.74 963 1470.94 963ZM1470.54 919.8C1459.54 919.8 1454.74 924.7 1454.14 933.6H1486.44V933.4C1486.44 924.2 1481.14 919.8 1470.54 919.8ZM1519.33 963C1509.03 963 1502.53 958.2 1502.53 950C1502.53 942.3 1508.73 938.3 1518.53 937.2L1541.13 934.8V931.9C1541.13 923.7 1537.53 920.8 1528.03 920.8C1518.83 920.8 1514.33 923.8 1514.33 931.1V931.5H1503.63V931.1C1503.63 919.8 1513.03 911.3 1528.83 911.3C1544.63 911.3 1551.73 919.9 1551.73 931.8V962H1541.83V949.6H1541.13C1538.53 958 1530.63 963 1519.33 963ZM1513.33 949.3C1513.33 953.3 1516.03 955.2 1522.23 955.2C1533.53 955.2 1541.13 951 1541.13 941.2L1521.63 943.4C1516.03 944.1 1513.33 945.4 1513.33 949.3ZM1572.97 962H1559.37V946.5H1572.97V962ZM1591.8 906.5H1581V895H1591.8V906.5ZM1591.8 962H1581V912.3H1591.8V962ZM1627.2 963C1610.7 963 1599.6 952.5 1599.6 937.2C1599.6 921.7 1610.7 911.3 1627.2 911.3C1643.8 911.3 1654.9 921.7 1654.9 937.2C1654.9 952.5 1643.8 963 1627.2 963ZM1627.2 953.4C1639.3 953.4 1644.3 947.7 1644.3 937.2C1644.3 926.6 1639.3 920.8 1627.2 920.8C1615.2 920.8 1610.2 926.6 1610.2 937.2C1610.2 947.7 1615.2 953.4 1627.2 953.4Z" fill="white"/>
</svg>
