<svg width="28" height="28" viewBox="0 0 28 28" fill="none" xmlns="http://www.w3.org/2000/svg">
<path fillRule="evenodd" clip-rule="evenodd" d="M8.94331 25.6666H19.0544C23.0097 25.6666 25.6661 22.8922 25.6661 18.7638V9.23615C25.6661 5.10777 23.0097 2.33331 19.0556 2.33331H8.94331C4.98914 2.33331 2.33276 5.10777 2.33276 9.23615V18.7638C2.33276 22.8922 4.98914 25.6666 8.94331 25.6666ZM9.91411 12.8334C8.3057 12.8334 6.99878 11.5247 6.99878 9.9167C6.99878 8.30872 8.3057 7.00003 9.91411 7.00003C11.5214 7.00003 12.8295 8.30872 12.8295 9.9167C12.8295 11.5247 11.5214 12.8334 9.91411 12.8334ZM23.1232 17.423C23.5138 18.4247 23.3109 19.6287 22.8932 20.6208C22.3982 21.8007 21.4502 22.6941 20.2559 23.0841C19.7257 23.2575 19.1696 23.3334 18.6147 23.3334H8.78232C7.80389 23.3334 6.93809 23.0986 6.22832 22.6615C5.78369 22.387 5.70509 21.7537 6.03475 21.3432C6.58614 20.6569 7.13049 19.9682 7.67953 19.2735C8.72601 17.9443 9.43108 17.559 10.2148 17.8974C10.5327 18.037 10.8518 18.2465 11.1803 18.468C12.0555 19.0628 13.2721 19.8803 14.8746 18.993C15.9713 18.3788 16.6073 17.3252 17.1612 16.4077L17.1705 16.3924C17.2098 16.328 17.2487 16.2636 17.2874 16.1995L17.2875 16.1994C17.4736 15.8914 17.6573 15.5875 17.865 15.3076C18.1255 14.9572 19.091 13.8616 20.3416 14.6418C21.1382 15.133 21.8081 15.7976 22.5249 16.5092C22.7982 16.7813 22.993 17.0907 23.1232 17.423Z" fill="#9E9E9E"/>
</svg>
